<?xml version="1.0" standalone="no"?>
<!DOCTYPE svg PUBLIC "-//W3C//DTD SVG 20010904//EN"
 "http://www.w3.org/TR/2001/REC-SVG-20010904/DTD/svg10.dtd">
<svg version="1.0" xmlns="http://www.w3.org/2000/svg"
 width="512.000000pt" height="512.000000pt" viewBox="0 0 512.000000 512.000000"
 preserveAspectRatio="xMidYMid meet">
<metadata>
Created by potrace 1.14, written by Peter Selinger 2001-2017
</metadata>
<g transform="translate(0.000000,512.000000) scale(0.100000,-0.100000)"
fill="#000000" stroke="none">
<path d="M2395 5113 c-474 -38 -872 -173 -1248 -423 -1184 -787 -1499 -2377
-706 -3559 363 -542 932 -929 1575 -1070 337 -75 751 -75 1088 0 306 67 607
195 866 367 632 420 1034 1074 1131 1837 16 129 16 461 0 590 -60 477 -251
936 -541 1300 -322 404 -788 717 -1284 861 -275 80 -623 118 -881 97z m309
-743 c104 -26 187 -72 266 -147 73 -68 120 -141 158 -241 22 -58 26 -83 26
-192 0 -106 -3 -135 -23 -190 -47 -133 -148 -260 -259 -325 l-52 -30 0 -402
c0 -222 2 -403 4 -403 2 0 114 69 248 153 l243 153 8 60 c23 158 77 267 183
363 202 185 516 185 718 0 120 -109 177 -236 179 -394 1 -154 -51 -282 -158
-389 -158 -158 -398 -201 -606 -109 l-46 21 -384 -242 -384 -241 -5 -568 -5
-569 -24 -19 c-21 -17 -41 -19 -233 -19 l-209 0 -24 26 -25 27 0 558 0 559
-52 34 c-29 19 -203 129 -387 244 l-334 210 -46 -21 c-110 -48 -252 -61 -361
-32 -139 37 -273 141 -337 261 -94 178 -89 389 15 550 183 283 572 337 816
113 106 -96 160 -205 183 -363 l8 -60 243 -153 c134 -84 246 -153 248 -153 2
0 4 181 4 403 l0 402 -52 30 c-111 65 -212 192 -259 325 -20 55 -23 84 -23
190 0 109 4 134 26 192 38 100 85 173 158 241 152 144 356 198 554 147z"/>
<path d="M2496 3986 c-79 -29 -128 -88 -142 -169 -19 -117 85 -237 206 -237
111 0 211 103 210 216 0 33 -33 109 -58 137 -47 52 -150 77 -216 53z"/>
<path d="M1191 2965 c-51 -16 -95 -55 -123 -109 -29 -57 -22 -149 16 -205 34
-49 113 -91 171 -91 59 0 140 43 173 92 34 52 43 148 17 199 -29 57 -76 98
-129 114 -59 18 -68 18 -125 0z"/>
<path d="M3801 2965 c-51 -16 -95 -55 -123 -109 -29 -57 -22 -149 16 -205 34
-49 113 -91 171 -91 59 0 140 43 173 92 34 52 43 148 17 199 -29 57 -76 98
-129 114 -59 18 -68 18 -125 0z"/>
</g>
</svg>
